<?xml version="1.0" encoding="utf-8"?>
<!-- Generator: Adobe Illustrator 24.1.1, SVG Export Plug-In . SVG Version: 6.00 Build 0)  -->
<svg version="1.1" id="Layer_1" xmlns="http://www.w3.org/2000/svg" xmlns:xlink="http://www.w3.org/1999/xlink" x="0px" y="0px"
	 viewBox="0 0 512 512" style="enable-background:new 0 0 512 512;" xml:space="preserve">
<style type="text/css">
	.st0{fill:#C75C5C;}
	.st1{fill:#A65050;}
	.st2{fill:#FFFFFF;}
	.st3{fill:#4F5D73;}
	.st4{fill:#E0E0D1;}
	.st5{fill:#E0995E;}
	.st6{fill:#F5CF87;}
</style>
<g id="XMLID_1_">
	<path id="XMLID_3_" class="st0" d="M256,0c141,0,256,115,256,256S397,512,256,512S0,397,0,256S115,0,256,0"/>
	<path id="XMLID_4_" class="st1" d="M352.1,144.1H159.9c-8.7,0-15.8,7.1-15.8,15.8V256c0,8.7,7.1,15.8,15.8,15.8h192.2
		c8.7,0,15.8-7.1,15.8-15.8v-96.1C367.9,151.2,360.8,144.1,352.1,144.1"/>
	<path id="XMLID_8_" class="st1" d="M352.1,367.9c-8.7,0-15.8-7.1-15.8-15.8c0-8.7,7.1-15.8,15.8-15.8c8.7,0,15.8,7.1,15.8,15.8
		C367.9,360.8,360.8,367.9,352.1,367.9 M144.1,159.9L144.1,159.9c0-8.7,7.1-15.8,15.8-15.8h192.2c8.7,0,15.8,7.1,15.8,15.8V256l0,0
		c0,8.7-7.1,15.8-15.8,15.8H159.9c-8.7,0-15.8-7.1-15.8-15.8V159.9 M352.1,111.9H159.9c-26.8,0-48,21.3-48,48V256v96.1
		c0,26.8,21.3,48,48,48h192.2c26.8,0,48-21.3,48-48V256v-96.1C400.1,133.9,378.1,111.9,352.1,111.9"/>
	<path id="XMLID_9_" class="st1" d="M352.1,336.3c-8.7,0-15.8,7.1-15.8,15.8c0,8.7,7.1,15.8,15.8,15.8c8.7,0,15.8-7.1,15.8-15.8
		C367.9,343.4,360.8,336.3,352.1,336.3"/>
	<path id="XMLID_10_" class="st1" d="M336.3,415.9H175.7c-8.7,0-15.8,7.1-15.8,15.8c0,8.7,7.1,15.8,15.8,15.8h159.9
		c8.7,0,15.8-7.1,15.8-15.8C351.3,423,345,415.9,336.3,415.9"/>
	<path id="XMLID_11_" class="st2" d="M384.4,336.3c0,17.3-14.2,32.3-32.3,32.3H159.9c-17.3,0-32.3-14.2-32.3-32.3V144.1
		c0-17.3,14.2-32.3,32.3-32.3h192.2c17.3,0,32.3,14.2,32.3,32.3C384.4,144.1,384.4,336.3,384.4,336.3z"/>
	<path id="XMLID_12_" class="st2" d="M384.4,336.3h-15.8c0,4.7-1.6,8.7-4.7,11c-3.2,3.2-7.1,4.7-11,4.7h-193c-4.7,0-8.7-1.6-11-4.7
		c-3.2-3.2-4.7-7.1-4.7-11V144.1c0-4.7,1.6-8.7,4.7-11c3.2-3.2,7.1-4.7,11-4.7h192.2c4.7,0,8.7,1.6,11,4.7c3.2,3.2,4.7,7.1,4.7,11
		v192.2L384.4,336.3l15.8,0V144.1c0-26.8-21.3-48-48-48H159.9c-26.8,0-48,21.3-48,48v192.2c0,26.8,21.3,48,48,48h192.2
		c26.8,0,48-21.3,48-48C400.1,336.3,384.4,336.3,384.4,336.3z"/>
	<path id="XMLID_13_" class="st3" d="M384.4,240.2c0,17.3-14.2,32.3-32.3,32.3H159.9c-17.3,0-32.3-14.2-32.3-32.3v-96.1
		c0-17.3,14.2-32.3,32.3-32.3h192.2c17.3,0,32.3,14.2,32.3,32.3C384.4,144.1,384.4,240.2,384.4,240.2z"/>
	<path id="XMLID_14_" class="st2" d="M384.4,240.2h-15.8c0,4.7-1.6,8.7-4.7,11c-3.2,3.2-7.1,4.7-11,4.7h-193c-4.7,0-8.7-1.6-11-4.7
		c-3.2-3.2-4.7-7.1-4.7-11v-96.1c0-4.7,1.6-8.7,4.7-11c3.2-3.2,7.1-4.7,11-4.7h192.2c4.7,0,8.7,1.6,11,4.7c3.2,3.2,4.7,7.1,4.7,11
		v96.1H384.4h15.8v-96.1c0-26.8-21.3-48-48-48H159.9c-26.8,0-48,21.3-48,48v96.1c0,26.8,21.3,48,48,48h192.2c26.8,0,48-21.3,48-48
		H384.4z"/>
	<path id="XMLID_15_" class="st4" d="M159.9,367.9h192.2c17.3,0,32.3-14.2,32.3-32.3v-32.3H127.6v32.3
		C127.6,353.7,142.6,367.9,159.9,367.9z"/>
	<path id="XMLID_16_" class="st4" d="M159.9,367.9v15.8h192.2c26.8,0,48-21.3,48-48v-48H111.9v48c0,26.8,21.3,48,48,48V367.9v-15.8
		c-4.7,0-8.7-1.6-11-4.7c-3.2-3.2-4.7-7.1-4.7-11v-15.8h223.7v15.8c0,4.7-1.6,8.7-4.7,11c-3.2,3.2-7.1,4.7-11,4.7H159.9V367.9z"/>
	<path id="XMLID_17_" class="st5" d="M192.2,336.3c0,17.3-14.2,32.3-32.3,32.3c-17.3,0-32.3-14.2-32.3-32.3
		c0-17.3,14.2-32.3,32.3-32.3C177.2,304,192.2,318.2,192.2,336.3z"/>
	<path id="XMLID_18_" class="st4" d="M192.2,336.3h-15.8c0,4.7-1.6,8.7-4.7,11c-3.2,3.2-7.1,4.7-11,4.7c-4.7,0-8.7-1.6-11-4.7
		c-3.2-3.2-4.7-7.1-4.7-11c0-4.7,1.6-8.7,4.7-11c3.2-3.2,7.1-4.7,11-4.7c4.7,0,8.7,1.6,11,4.7c3.2,3.2,4.7,7.1,4.7,11H192.2H208
		c0-26.8-21.3-48-48-48c-26.8,0-48,21.3-48,48s21.3,48,48,48s48-21.3,48-48C208,336.3,192.2,336.3,192.2,336.3z"/>
	<path id="XMLID_19_" class="st5" d="M384.4,336.3c0,17.3-14.2,32.3-32.3,32.3c-17.3,0-32.3-14.2-32.3-32.3
		c0-17.3,14.2-32.3,32.3-32.3C369.4,304,384.4,318.2,384.4,336.3z"/>
	<path id="XMLID_20_" class="st4" d="M384.4,336.3h-15.8c0,4.7-1.6,8.7-4.7,11c-3.2,3.2-7.1,4.7-11,4.7c-4.7,0-8.7-1.6-11-4.7
		c-3.2-3.2-4.7-7.1-4.7-11c0-4.7,1.6-8.7,4.7-11c3.2-3.2,7.1-4.7,11-4.7c4.7,0,8.7,1.6,11,4.7c3.2,3.2,4.7,7.1,4.7,11H384.4h15.8
		c0-26.8-21.3-48-48-48c-26.8,0-48,21.3-48,48s21.3,48,48,48s48-21.3,48-48C400.1,336.3,384.4,336.3,384.4,336.3z"/>
	<path id="XMLID_21_" class="st6" d="M352.1,415.9c0,8.7-7.1,15.8-15.8,15.8H175.7c-8.7,0-15.8-7.1-15.8-15.8
		c0-8.7,7.1-15.8,15.8-15.8h159.9C345,400.1,352.1,407.2,352.1,415.9z"/>
</g>
</svg>
